mtllib ./sustagen kids collection.mtl
g Cylinder
v 14.86399 -24.10504 -8.286968
v 0 -24.10504 0
v 17.16345 -24.10504 0
v 8.581727 -24.10504 -14.35345
v 1.050958E-15 -24.10504 -16.57394
v -8.581727 -24.10504 -14.35345
v -14.86399 -24.10504 -8.286968
v -17.16345 -24.10504 -2.029722E-15
v -14.86399 -24.10504 8.286968
v -8.581727 -24.10504 14.35345
v -3.152875E-15 -24.10504 16.57394
v 8.581727 -24.10504 14.35345
v 14.86399 -24.10504 8.286968
v 14.86399 -24.10504 -8.286968
v 17.16345 -24.10504 0
v 17.16345 24.10504 0
v 14.86399 24.10504 -8.286968
v 8.581727 -24.10504 -14.35345
v 8.581727 24.10504 -14.35345
v 1.050958E-15 -24.10504 -16.57394
v 1.050958E-15 24.10504 -16.57394
v -8.581727 -24.10504 -14.35345
v -8.581727 24.10504 -14.35345
v -14.86399 -24.10504 -8.286968
v -14.86399 24.10504 -8.286968
v -17.16345 -24.10504 -2.029722E-15
v -17.16345 24.10504 -2.029722E-15
v -14.86399 -24.10504 8.286968
v -14.86399 24.10504 8.286968
v -8.581727 -24.10504 14.35345
v -8.581727 24.10504 14.35345
v -3.152875E-15 -24.10504 16.57394
v -3.152875E-15 24.10504 16.57394
v 8.581727 -24.10504 14.35345
v 8.581727 24.10504 14.35345
v 14.86399 -24.10504 8.286968
v 14.86399 24.10504 8.286968
v 17.16345 -24.10504 0
v 17.16345 24.10504 0
v 14.86399 24.10504 -8.286968
v 17.16345 24.10504 0
v 0 24.10504 0
v 8.581727 24.10504 -14.35345
v 1.050958E-15 24.10504 -16.57394
v -8.581727 24.10504 -14.35345
v -14.86399 24.10504 -8.286968
v -17.16345 24.10504 -2.029722E-15
v -14.86399 24.10504 8.286968
v -8.581727 24.10504 14.35345
v -3.152875E-15 24.10504 16.57394
v 8.581727 24.10504 14.35345
v 14.86399 24.10504 8.286968

vn 0 -1 0
vn 0 -1 0
vn 0 -1 0
vn 0 -1 0
vn 0 -1 0
vn 0 -1 0
vn 0 -1 0
vn 0 -1 0
vn 0 -1 0
vn 0 -1 0
vn 0 -1 0
vn 0 -1 0
vn 0 -1 0
vn 0.8660253 0 -0.5000001
vn 1 0 0
vn 1 0 0
vn 0.8660253 0 -0.5000001
vn 0.5000001 0 -0.8660253
vn 0.5000001 0 -0.8660253
vn 0 0 -1
vn 0 0 -1
vn -0.5000001 0 -0.8660253
vn -0.5000001 0 -0.8660253
vn -0.8660253 0 -0.5000001
vn -0.8660253 0 -0.5000001
vn -1 0 0
vn -1 0 0
vn -0.8660253 0 0.5000001
vn -0.8660253 0 0.5000001
vn -0.5000001 0 0.8660253
vn -0.5000001 0 0.8660253
vn 0 0 1
vn 0 0 1
vn 0.5000001 0 0.8660253
vn 0.5000001 0 0.8660253
vn 0.8660253 0 0.5000001
vn 0.8660253 0 0.5000001
vn 1 0 0
vn 1 0 0
vn 0 1 0
vn 0 1 0
vn 0 1 0
vn 0 1 0
vn 0 1 0
vn 0 1 0
vn 0 1 0
vn 0 1 0
vn 0 1 0
vn 0 1 0
vn 0 1 0
vn 0 1 0
vn 0 1 0

vt 0.0669873 0.75
vt 0.5 0.5
vt 0 0.5
vt 0.25 0.9330127
vt 0.5 1
vt 0.75 0.9330127
vt 0.9330127 0.75
vt 1 0.5
vt 0.9330127 0.25
vt 0.75 0.06698728
vt 0.5 0
vt 0.25 0.06698728
vt 0.0669873 0.25
vt 0.08333334 0
vt 0 0
vt 0 1
vt 0.08333334 1
vt 0.1666667 0
vt 0.1666667 1
vt 0.25 0
vt 0.25 1
vt 0.3333333 0
vt 0.3333333 1
vt 0.4166667 0
vt 0.4166667 1
vt 0.5 0
vt 0.5 1
vt 0.5833333 0
vt 0.5833333 1
vt 0.6666667 0
vt 0.6666667 1
vt 0.75 0
vt 0.75 1
vt 0.8333333 0
vt 0.8333333 1
vt 0.9166667 0
vt 0.9166667 1
vt 1 0
vt 1 1
vt 0.9330127 0.75
vt 1 0.5
vt 0.5 0.5
vt 0.75 0.9330127
vt 0.5 1
vt 0.25 0.9330127
vt 0.0669873 0.75
vt 0 0.5
vt 0.0669873 0.25
vt 0.25 0.06698728
vt 0.5 0
vt 0.75 0.06698728
vt 0.9330127 0.25

usemtl Standard(Clone)
usemap Standard(Clone)
f 2/2/2 1/1/1 3/3/3
f 2/2/2 4/4/4 1/1/1
f 2/2/2 5/5/5 4/4/4
f 2/2/2 6/6/6 5/5/5
f 2/2/2 7/7/7 6/6/6
f 2/2/2 8/8/8 7/7/7
f 2/2/2 9/9/9 8/8/8
f 2/2/2 10/10/10 9/9/9
f 2/2/2 11/11/11 10/10/10
f 2/2/2 12/12/12 11/11/11
f 2/2/2 13/13/13 12/12/12
f 2/2/2 3/3/3 13/13/13
f 15/15/15 14/14/14 16/16/16
f 16/16/16 14/14/14 17/17/17
f 14/14/14 18/18/18 17/17/17
f 17/17/17 18/18/18 19/19/19
f 18/18/18 20/20/20 19/19/19
f 19/19/19 20/20/20 21/21/21
f 20/20/20 22/22/22 21/21/21
f 21/21/21 22/22/22 23/23/23
f 22/22/22 24/24/24 23/23/23
f 23/23/23 24/24/24 25/25/25
f 24/24/24 26/26/26 25/25/25
f 25/25/25 26/26/26 27/27/27
f 26/26/26 28/28/28 27/27/27
f 27/27/27 28/28/28 29/29/29
f 28/28/28 30/30/30 29/29/29
f 29/29/29 30/30/30 31/31/31
f 30/30/30 32/32/32 31/31/31
f 31/31/31 32/32/32 33/33/33
f 32/32/32 34/34/34 33/33/33
f 33/33/33 34/34/34 35/35/35
f 34/34/34 36/36/36 35/35/35
f 35/35/35 36/36/36 37/37/37
f 36/36/36 38/38/38 37/37/37
f 37/37/37 38/38/38 39/39/39
f 41/41/41 40/40/40 42/42/42
f 40/40/40 43/43/43 42/42/42
f 43/43/43 44/44/44 42/42/42
f 44/44/44 45/45/45 42/42/42
f 45/45/45 46/46/46 42/42/42
f 46/46/46 47/47/47 42/42/42
f 47/47/47 48/48/48 42/42/42
f 48/48/48 49/49/49 42/42/42
f 49/49/49 50/50/50 42/42/42
f 50/50/50 51/51/51 42/42/42
f 51/51/51 52/52/52 42/42/42
f 52/52/52 41/41/41 42/42/42
g Cylinder (Copy)
v 16.98181 -24.10504 37.98516
v 2.117822 -24.10504 46.27213
v 19.28128 -24.10504 46.27213
v 10.69955 -24.10504 31.91868
v 2.117822 -24.10504 29.69819
v -6.463905 -24.10504 31.91868
v -12.74616 -24.10504 37.98516
v -15.04563 -24.10504 46.27213
v -12.74616 -24.10504 54.55909
v -6.463905 -24.10504 60.62557
v 2.117822 -24.10504 62.84606
v 10.69955 -24.10504 60.62557
v 16.98181 -24.10504 54.55909
v 16.98181 -24.10504 37.98516
v 19.28128 -24.10504 46.27213
v 19.28128 24.10503 46.27213
v 16.98181 24.10503 37.98516
v 10.69955 -24.10504 31.91868
v 10.69955 24.10503 31.91868
v 2.117822 -24.10504 29.69819
v 2.117822 24.10503 29.69819
v -6.463905 -24.10504 31.91868
v -6.463905 24.10503 31.91868
v -12.74616 -24.10504 37.98516
v -12.74616 24.10503 37.98516
v -15.04563 -24.10504 46.27213
v -15.04563 24.10503 46.27213
v -12.74616 -24.10504 54.55909
v -12.74616 24.10503 54.55909
v -6.463905 -24.10504 60.62557
v -6.463905 24.10503 60.62557
v 2.117822 -24.10504 62.84606
v 2.117822 24.10503 62.84606
v 10.69955 -24.10504 60.62557
v 10.69955 24.10503 60.62557
v 16.98181 -24.10504 54.55909
v 16.98181 24.10503 54.55909
v 19.28128 -24.10504 46.27213
v 19.28128 24.10503 46.27213
v 16.98181 24.10503 37.98516
v 19.28128 24.10503 46.27213
v 2.117822 24.10503 46.27213
v 10.69955 24.10503 31.91868
v 2.117822 24.10503 29.69819
v -6.463905 24.10503 31.91868
v -12.74616 24.10503 37.98516
v -15.04563 24.10503 46.27213
v -12.74616 24.10503 54.55909
v -6.463905 24.10503 60.62557
v 2.117822 24.10503 62.84606
v 10.69955 24.10503 60.62557
v 16.98181 24.10503 54.55909

vn 0 -1 0
vn 0 -1 0
vn 0 -1 0
vn 0 -1 0
vn 0 -1 0
vn 0 -1 0
vn 0 -1 0
vn 0 -1 0
vn 0 -1 0
vn 0 -1 0
vn 0 -1 0
vn 0 -1 0
vn 0 -1 0
vn 0.8660253 0 -0.5000001
vn 1 0 0
vn 1 0 0
vn 0.8660253 0 -0.5000001
vn 0.5000001 0 -0.8660253
vn 0.5000001 0 -0.8660253
vn 0 0 -1
vn 0 0 -1
vn -0.5000001 0 -0.8660253
vn -0.5000001 0 -0.8660253
vn -0.8660253 0 -0.5000001
vn -0.8660253 0 -0.5000001
vn -1 0 0
vn -1 0 0
vn -0.8660253 0 0.5000001
vn -0.8660253 0 0.5000001
vn -0.5000001 0 0.8660253
vn -0.5000001 0 0.8660253
vn 0 0 1
vn 0 0 1
vn 0.5000001 0 0.8660253
vn 0.5000001 0 0.8660253
vn 0.8660253 0 0.5000001
vn 0.8660253 0 0.5000001
vn 1 0 0
vn 1 0 0
vn 0 1 0
vn 0 1 0
vn 0 1 0
vn 0 1 0
vn 0 1 0
vn 0 1 0
vn 0 1 0
vn 0 1 0
vn 0 1 0
vn 0 1 0
vn 0 1 0
vn 0 1 0
vn 0 1 0

vt 0.0669873 0.75
vt 0.5 0.5
vt 0 0.5
vt 0.25 0.9330127
vt 0.5 1
vt 0.75 0.9330127
vt 0.9330127 0.75
vt 1 0.5
vt 0.9330127 0.25
vt 0.75 0.06698728
vt 0.5 0
vt 0.25 0.06698728
vt 0.0669873 0.25
vt 0.08333334 0
vt 0 0
vt 0 1
vt 0.08333334 1
vt 0.1666667 0
vt 0.1666667 1
vt 0.25 0
vt 0.25 1
vt 0.3333333 0
vt 0.3333333 1
vt 0.4166667 0
vt 0.4166667 1
vt 0.5 0
vt 0.5 1
vt 0.5833333 0
vt 0.5833333 1
vt 0.6666667 0
vt 0.6666667 1
vt 0.75 0
vt 0.75 1
vt 0.8333333 0
vt 0.8333333 1
vt 0.9166667 0
vt 0.9166667 1
vt 1 0
vt 1 1
vt 0.9330127 0.75
vt 1 0.5
vt 0.5 0.5
vt 0.75 0.9330127
vt 0.5 1
vt 0.25 0.9330127
vt 0.0669873 0.75
vt 0 0.5
vt 0.0669873 0.25
vt 0.25 0.06698728
vt 0.5 0
vt 0.75 0.06698728
vt 0.9330127 0.25

usemtl Standard(Clone)
usemap Standard(Clone)
f 54/54/54 53/53/53 55/55/55
f 54/54/54 56/56/56 53/53/53
f 54/54/54 57/57/57 56/56/56
f 54/54/54 58/58/58 57/57/57
f 54/54/54 59/59/59 58/58/58
f 54/54/54 60/60/60 59/59/59
f 54/54/54 61/61/61 60/60/60
f 54/54/54 62/62/62 61/61/61
f 54/54/54 63/63/63 62/62/62
f 54/54/54 64/64/64 63/63/63
f 54/54/54 65/65/65 64/64/64
f 54/54/54 55/55/55 65/65/65
f 67/67/67 66/66/66 68/68/68
f 68/68/68 66/66/66 69/69/69
f 66/66/66 70/70/70 69/69/69
f 69/69/69 70/70/70 71/71/71
f 70/70/70 72/72/72 71/71/71
f 71/71/71 72/72/72 73/73/73
f 72/72/72 74/74/74 73/73/73
f 73/73/73 74/74/74 75/75/75
f 74/74/74 76/76/76 75/75/75
f 75/75/75 76/76/76 77/77/77
f 76/76/76 78/78/78 77/77/77
f 77/77/77 78/78/78 79/79/79
f 78/78/78 80/80/80 79/79/79
f 79/79/79 80/80/80 81/81/81
f 80/80/80 82/82/82 81/81/81
f 81/81/81 82/82/82 83/83/83
f 82/82/82 84/84/84 83/83/83
f 83/83/83 84/84/84 85/85/85
f 84/84/84 86/86/86 85/85/85
f 85/85/85 86/86/86 87/87/87
f 86/86/86 88/88/88 87/87/87
f 87/87/87 88/88/88 89/89/89
f 88/88/88 90/90/90 89/89/89
f 89/89/89 90/90/90 91/91/91
f 93/93/93 92/92/92 94/94/94
f 92/92/92 95/95/95 94/94/94
f 95/95/95 96/96/96 94/94/94
f 96/96/96 97/97/97 94/94/94
f 97/97/97 98/98/98 94/94/94
f 98/98/98 99/99/99 94/94/94
f 99/99/99 100/100/100 94/94/94
f 100/100/100 101/101/101 94/94/94
f 101/101/101 102/102/102 94/94/94
f 102/102/102 103/103/103 94/94/94
f 103/103/103 104/104/104 94/94/94
f 104/104/104 93/93/93 94/94/94
g Cylinder (Copy) (Copy)
v 16.98181 -24.10505 82.25471
v 2.117822 -24.10505 90.54168
v 19.28128 -24.10505 90.54168
v 10.69955 -24.10505 76.18823
v 2.117822 -24.10505 73.96774
v -6.463905 -24.10505 76.18823
v -12.74616 -24.10505 82.25471
v -15.04563 -24.10505 90.54168
v -12.74616 -24.10505 98.82865
v -6.463905 -24.10505 104.8951
v 2.117822 -24.10505 107.1156
v 10.69955 -24.10505 104.8951
v 16.98181 -24.10505 98.82865
v 16.98181 -24.10505 82.25471
v 19.28128 -24.10505 90.54168
v 19.28128 24.10503 90.54168
v 16.98181 24.10503 82.25471
v 10.69955 -24.10505 76.18823
v 10.69955 24.10503 76.18823
v 2.117822 -24.10505 73.96774
v 2.117822 24.10503 73.96774
v -6.463905 -24.10505 76.18823
v -6.463905 24.10503 76.18823
v -12.74616 -24.10505 82.25471
v -12.74616 24.10503 82.25471
v -15.04563 -24.10505 90.54168
v -15.04563 24.10503 90.54168
v -12.74616 -24.10505 98.82865
v -12.74616 24.10503 98.82865
v -6.463905 -24.10505 104.8951
v -6.463905 24.10503 104.8951
v 2.117822 -24.10505 107.1156
v 2.117822 24.10503 107.1156
v 10.69955 -24.10505 104.8951
v 10.69955 24.10503 104.8951
v 16.98181 -24.10505 98.82865
v 16.98181 24.10503 98.82865
v 19.28128 -24.10505 90.54168
v 19.28128 24.10503 90.54168
v 16.98181 24.10503 82.25471
v 19.28128 24.10503 90.54168
v 2.117822 24.10503 90.54168
v 10.69955 24.10503 76.18823
v 2.117822 24.10503 73.96774
v -6.463905 24.10503 76.18823
v -12.74616 24.10503 82.25471
v -15.04563 24.10503 90.54168
v -12.74616 24.10503 98.82865
v -6.463905 24.10503 104.8951
v 2.117822 24.10503 107.1156
v 10.69955 24.10503 104.8951
v 16.98181 24.10503 98.82865

vn 0 -1 0
vn 0 -1 0
vn 0 -1 0
vn 0 -1 0
vn 0 -1 0
vn 0 -1 0
vn 0 -1 0
vn 0 -1 0
vn 0 -1 0
vn 0 -1 0
vn 0 -1 0
vn 0 -1 0
vn 0 -1 0
vn 0.8660253 0 -0.5000001
vn 1 0 0
vn 1 0 0
vn 0.8660253 0 -0.5000001
vn 0.5000001 0 -0.8660253
vn 0.5000001 0 -0.8660253
vn 0 0 -1
vn 0 0 -1
vn -0.5000001 0 -0.8660253
vn -0.5000001 0 -0.8660253
vn -0.8660253 0 -0.5000001
vn -0.8660253 0 -0.5000001
vn -1 0 0
vn -1 0 0
vn -0.8660253 0 0.5000001
vn -0.8660253 0 0.5000001
vn -0.5000001 0 0.8660253
vn -0.5000001 0 0.8660253
vn 0 0 1
vn 0 0 1
vn 0.5000001 0 0.8660253
vn 0.5000001 0 0.8660253
vn 0.8660253 0 0.5000001
vn 0.8660253 0 0.5000001
vn 1 0 0
vn 1 0 0
vn 0 1 0
vn 0 1 0
vn 0 1 0
vn 0 1 0
vn 0 1 0
vn 0 1 0
vn 0 1 0
vn 0 1 0
vn 0 1 0
vn 0 1 0
vn 0 1 0
vn 0 1 0
vn 0 1 0

vt 0.0669873 0.75
vt 0.5 0.5
vt 0 0.5
vt 0.25 0.9330127
vt 0.5 1
vt 0.75 0.9330127
vt 0.9330127 0.75
vt 1 0.5
vt 0.9330127 0.25
vt 0.75 0.06698728
vt 0.5 0
vt 0.25 0.06698728
vt 0.0669873 0.25
vt 0.08333334 0
vt 0 0
vt 0 1
vt 0.08333334 1
vt 0.1666667 0
vt 0.1666667 1
vt 0.25 0
vt 0.25 1
vt 0.3333333 0
vt 0.3333333 1
vt 0.4166667 0
vt 0.4166667 1
vt 0.5 0
vt 0.5 1
vt 0.5833333 0
vt 0.5833333 1
vt 0.6666667 0
vt 0.6666667 1
vt 0.75 0
vt 0.75 1
vt 0.8333333 0
vt 0.8333333 1
vt 0.9166667 0
vt 0.9166667 1
vt 1 0
vt 1 1
vt 0.9330127 0.75
vt 1 0.5
vt 0.5 0.5
vt 0.75 0.9330127
vt 0.5 1
vt 0.25 0.9330127
vt 0.0669873 0.75
vt 0 0.5
vt 0.0669873 0.25
vt 0.25 0.06698728
vt 0.5 0
vt 0.75 0.06698728
vt 0.9330127 0.25

usemtl Standard(Clone)
usemap Standard(Clone)
f 106/106/106 105/105/105 107/107/107
f 106/106/106 108/108/108 105/105/105
f 106/106/106 109/109/109 108/108/108
f 106/106/106 110/110/110 109/109/109
f 106/106/106 111/111/111 110/110/110
f 106/106/106 112/112/112 111/111/111
f 106/106/106 113/113/113 112/112/112
f 106/106/106 114/114/114 113/113/113
f 106/106/106 115/115/115 114/114/114
f 106/106/106 116/116/116 115/115/115
f 106/106/106 117/117/117 116/116/116
f 106/106/106 107/107/107 117/117/117
f 119/119/119 118/118/118 120/120/120
f 120/120/120 118/118/118 121/121/121
f 118/118/118 122/122/122 121/121/121
f 121/121/121 122/122/122 123/123/123
f 122/122/122 124/124/124 123/123/123
f 123/123/123 124/124/124 125/125/125
f 124/124/124 126/126/126 125/125/125
f 125/125/125 126/126/126 127/127/127
f 126/126/126 128/128/128 127/127/127
f 127/127/127 128/128/128 129/129/129
f 128/128/128 130/130/130 129/129/129
f 129/129/129 130/130/130 131/131/131
f 130/130/130 132/132/132 131/131/131
f 131/131/131 132/132/132 133/133/133
f 132/132/132 134/134/134 133/133/133
f 133/133/133 134/134/134 135/135/135
f 134/134/134 136/136/136 135/135/135
f 135/135/135 136/136/136 137/137/137
f 136/136/136 138/138/138 137/137/137
f 137/137/137 138/138/138 139/139/139
f 138/138/138 140/140/140 139/139/139
f 139/139/139 140/140/140 141/141/141
f 140/140/140 142/142/142 141/141/141
f 141/141/141 142/142/142 143/143/143
f 145/145/145 144/144/144 146/146/146
f 144/144/144 147/147/147 146/146/146
f 147/147/147 148/148/148 146/146/146
f 148/148/148 149/149/149 146/146/146
f 149/149/149 150/150/150 146/146/146
f 150/150/150 151/151/151 146/146/146
f 151/151/151 152/152/152 146/146/146
f 152/152/152 153/153/153 146/146/146
f 153/153/153 154/154/154 146/146/146
f 154/154/154 155/155/155 146/146/146
f 155/155/155 156/156/156 146/146/146
f 156/156/156 145/145/145 146/146/146
g Cylinder (Copy) (Copy) (Copy)
v 16.98181 -24.10505 129.9565
v 2.117822 -24.10505 138.2434
v 19.28128 -24.10505 138.2434
v 10.69955 -24.10505 123.89
v 2.117822 -24.10505 121.6695
v -6.463905 -24.10505 123.89
v -12.74616 -24.10505 129.9565
v -15.04563 -24.10505 138.2434
v -12.74616 -24.10505 146.5304
v -6.463905 -24.10505 152.5969
v 2.117822 -24.10505 154.8174
v 10.69955 -24.10505 152.5969
v 16.98181 -24.10505 146.5304
v 16.98181 -24.10505 129.9565
v 19.28128 -24.10505 138.2434
v 19.28128 24.10502 138.2434
v 16.98181 24.10502 129.9565
v 10.69955 -24.10505 123.89
v 10.69955 24.10502 123.89
v 2.117822 -24.10505 121.6695
v 2.117822 24.10502 121.6695
v -6.463905 -24.10505 123.89
v -6.463905 24.10502 123.89
v -12.74616 -24.10505 129.9565
v -12.74616 24.10502 129.9565
v -15.04563 -24.10505 138.2434
v -15.04563 24.10502 138.2434
v -12.74616 -24.10505 146.5304
v -12.74616 24.10502 146.5304
v -6.463905 -24.10505 152.5969
v -6.463905 24.10502 152.5969
v 2.117822 -24.10505 154.8174
v 2.117822 24.10502 154.8174
v 10.69955 -24.10505 152.5969
v 10.69955 24.10502 152.5969
v 16.98181 -24.10505 146.5304
v 16.98181 24.10502 146.5304
v 19.28128 -24.10505 138.2434
v 19.28128 24.10502 138.2434
v 16.98181 24.10502 129.9565
v 19.28128 24.10502 138.2434
v 2.117822 24.10502 138.2434
v 10.69955 24.10502 123.89
v 2.117822 24.10502 121.6695
v -6.463905 24.10502 123.89
v -12.74616 24.10502 129.9565
v -15.04563 24.10502 138.2434
v -12.74616 24.10502 146.5304
v -6.463905 24.10502 152.5969
v 2.117822 24.10502 154.8174
v 10.69955 24.10502 152.5969
v 16.98181 24.10502 146.5304

vn 0 -1 0
vn 0 -1 0
vn 0 -1 0
vn 0 -1 0
vn 0 -1 0
vn 0 -1 0
vn 0 -1 0
vn 0 -1 0
vn 0 -1 0
vn 0 -1 0
vn 0 -1 0
vn 0 -1 0
vn 0 -1 0
vn 0.8660253 0 -0.5000001
vn 1 0 0
vn 1 0 0
vn 0.8660253 0 -0.5000001
vn 0.5000001 0 -0.8660253
vn 0.5000001 0 -0.8660253
vn 0 0 -1
vn 0 0 -1
vn -0.5000001 0 -0.8660253
vn -0.5000001 0 -0.8660253
vn -0.8660253 0 -0.5000001
vn -0.8660253 0 -0.5000001
vn -1 0 0
vn -1 0 0
vn -0.8660253 0 0.5000001
vn -0.8660253 0 0.5000001
vn -0.5000001 0 0.8660253
vn -0.5000001 0 0.8660253
vn 0 0 1
vn 0 0 1
vn 0.5000001 0 0.8660253
vn 0.5000001 0 0.8660253
vn 0.8660253 0 0.5000001
vn 0.8660253 0 0.5000001
vn 1 0 0
vn 1 0 0
vn 0 1 0
vn 0 1 0
vn 0 1 0
vn 0 1 0
vn 0 1 0
vn 0 1 0
vn 0 1 0
vn 0 1 0
vn 0 1 0
vn 0 1 0
vn 0 1 0
vn 0 1 0
vn 0 1 0

vt 0.0669873 0.75
vt 0.5 0.5
vt 0 0.5
vt 0.25 0.9330127
vt 0.5 1
vt 0.75 0.9330127
vt 0.9330127 0.75
vt 1 0.5
vt 0.9330127 0.25
vt 0.75 0.06698728
vt 0.5 0
vt 0.25 0.06698728
vt 0.0669873 0.25
vt 0.08333334 0
vt 0 0
vt 0 1
vt 0.08333334 1
vt 0.1666667 0
vt 0.1666667 1
vt 0.25 0
vt 0.25 1
vt 0.3333333 0
vt 0.3333333 1
vt 0.4166667 0
vt 0.4166667 1
vt 0.5 0
vt 0.5 1
vt 0.5833333 0
vt 0.5833333 1
vt 0.6666667 0
vt 0.6666667 1
vt 0.75 0
vt 0.75 1
vt 0.8333333 0
vt 0.8333333 1
vt 0.9166667 0
vt 0.9166667 1
vt 1 0
vt 1 1
vt 0.9330127 0.75
vt 1 0.5
vt 0.5 0.5
vt 0.75 0.9330127
vt 0.5 1
vt 0.25 0.9330127
vt 0.0669873 0.75
vt 0 0.5
vt 0.0669873 0.25
vt 0.25 0.06698728
vt 0.5 0
vt 0.75 0.06698728
vt 0.9330127 0.25

usemtl Standard(Clone)
usemap Standard(Clone)
f 158/158/158 157/157/157 159/159/159
f 158/158/158 160/160/160 157/157/157
f 158/158/158 161/161/161 160/160/160
f 158/158/158 162/162/162 161/161/161
f 158/158/158 163/163/163 162/162/162
f 158/158/158 164/164/164 163/163/163
f 158/158/158 165/165/165 164/164/164
f 158/158/158 166/166/166 165/165/165
f 158/158/158 167/167/167 166/166/166
f 158/158/158 168/168/168 167/167/167
f 158/158/158 169/169/169 168/168/168
f 158/158/158 159/159/159 169/169/169
f 171/171/171 170/170/170 172/172/172
f 172/172/172 170/170/170 173/173/173
f 170/170/170 174/174/174 173/173/173
f 173/173/173 174/174/174 175/175/175
f 174/174/174 176/176/176 175/175/175
f 175/175/175 176/176/176 177/177/177
f 176/176/176 178/178/178 177/177/177
f 177/177/177 178/178/178 179/179/179
f 178/178/178 180/180/180 179/179/179
f 179/179/179 180/180/180 181/181/181
f 180/180/180 182/182/182 181/181/181
f 181/181/181 182/182/182 183/183/183
f 182/182/182 184/184/184 183/183/183
f 183/183/183 184/184/184 185/185/185
f 184/184/184 186/186/186 185/185/185
f 185/185/185 186/186/186 187/187/187
f 186/186/186 188/188/188 187/187/187
f 187/187/187 188/188/188 189/189/189
f 188/188/188 190/190/190 189/189/189
f 189/189/189 190/190/190 191/191/191
f 190/190/190 192/192/192 191/191/191
f 191/191/191 192/192/192 193/193/193
f 192/192/192 194/194/194 193/193/193
f 193/193/193 194/194/194 195/195/195
f 197/197/197 196/196/196 198/198/198
f 196/196/196 199/199/199 198/198/198
f 199/199/199 200/200/200 198/198/198
f 200/200/200 201/201/201 198/198/198
f 201/201/201 202/202/202 198/198/198
f 202/202/202 203/203/203 198/198/198
f 203/203/203 204/204/204 198/198/198
f 204/204/204 205/205/205 198/198/198
f 205/205/205 206/206/206 198/198/198
f 206/206/206 207/207/207 198/198/198
f 207/207/207 208/208/208 198/198/198
f 208/208/208 197/197/197 198/198/198
